<svg width="34" height="34" viewBox="0 0 34 34" fill="none" xmlns="http://www.w3.org/2000/svg">
<path fill-rule="evenodd" clip-rule="evenodd" d="M29.5 17C29.5 23.6279 24.1279 29 17.5 29C10.8721 29 5.5 23.6279 5.5 17C5.5 10.3721 10.8721 5 17.5 5C24.1279 5 29.5 10.3721 29.5 17Z" fill="white" stroke="#22AD01" stroke-width="2.5" stroke-linecap="round" stroke-linejoin="round"/>
<path d="M20.6996 18.468C20.6996 15.3 16.4036 16.188 16.4036 15.024C16.4036 14.628 16.7396 14.388 17.2916 14.388C17.9636 14.388 18.3476 14.82 18.3356 15.372H20.4356C20.4356 14.136 19.7996 12.96 18.3716 12.6V11.16H16.5236V12.576C15.2756 12.864 14.4236 13.812 14.4236 15.036C14.4236 18.108 18.6956 17.244 18.6956 18.468C18.6956 18.924 18.2516 19.212 17.5796 19.212C16.8596 19.212 16.3556 18.804 16.3556 18.168H14.3516C14.3516 19.524 15.2276 20.604 16.5236 20.976V22.44H18.3716V21.048C19.7516 20.76 20.6996 19.764 20.6996 18.468Z" fill="#22AD01"/>
</svg>
